<mxfile host="app.diagrams.net" modified="2022-12-09T05:55:26.766Z" agent="5.0 (Windows NT 10.0; Win64; x64) AppleWebKit/537.36 (KHTML, like Gecko) Chrome/108.0.0.0 Safari/537.36" version="20.6.2" etag="bSAzLCT7SSdIDfIJZzUF" type="github">
  <diagram id="GWRNCxY9jVpq3Hpvrd0q" name="第 1 页">
    <mxGraphModel dx="1209" dy="749" grid="1" gridSize="10" guides="1" tooltips="1" connect="1" arrows="1" fold="1" page="1" pageScale="1" pageWidth="827" pageHeight="1169" math="0" shadow="0">
      <root>
        <mxCell id="0" />
        <mxCell id="1" parent="0" />
        <mxCell id="Xm-82mKOzTnAwgDt9Mpy-7" style="edgeStyle=orthogonalEdgeStyle;rounded=0;orthogonalLoop=1;jettySize=auto;html=1;entryX=0.5;entryY=0;entryDx=0;entryDy=0;" edge="1" parent="1" source="Xm-82mKOzTnAwgDt9Mpy-1" target="Xm-82mKOzTnAwgDt9Mpy-2">
          <mxGeometry relative="1" as="geometry" />
        </mxCell>
        <mxCell id="Xm-82mKOzTnAwgDt9Mpy-1" value="拟稿" style="ellipse;whiteSpace=wrap;html=1;aspect=fixed;" vertex="1" parent="1">
          <mxGeometry x="300" y="130" width="80" height="80" as="geometry" />
        </mxCell>
        <mxCell id="Xm-82mKOzTnAwgDt9Mpy-9" style="edgeStyle=orthogonalEdgeStyle;rounded=0;orthogonalLoop=1;jettySize=auto;html=1;entryX=0.5;entryY=0;entryDx=0;entryDy=0;" edge="1" parent="1" source="Xm-82mKOzTnAwgDt9Mpy-2" target="Xm-82mKOzTnAwgDt9Mpy-3">
          <mxGeometry relative="1" as="geometry" />
        </mxCell>
        <mxCell id="Xm-82mKOzTnAwgDt9Mpy-22" style="edgeStyle=orthogonalEdgeStyle;rounded=0;orthogonalLoop=1;jettySize=auto;html=1;entryX=0.013;entryY=0.588;entryDx=0;entryDy=0;entryPerimeter=0;" edge="1" parent="1" source="Xm-82mKOzTnAwgDt9Mpy-2" target="Xm-82mKOzTnAwgDt9Mpy-1">
          <mxGeometry relative="1" as="geometry" />
        </mxCell>
        <mxCell id="Xm-82mKOzTnAwgDt9Mpy-2" value="阅核" style="ellipse;whiteSpace=wrap;html=1;aspect=fixed;" vertex="1" parent="1">
          <mxGeometry x="300" y="290" width="80" height="80" as="geometry" />
        </mxCell>
        <mxCell id="Xm-82mKOzTnAwgDt9Mpy-10" style="edgeStyle=orthogonalEdgeStyle;rounded=0;orthogonalLoop=1;jettySize=auto;html=1;entryX=1;entryY=0.5;entryDx=0;entryDy=0;" edge="1" parent="1" source="Xm-82mKOzTnAwgDt9Mpy-3" target="Xm-82mKOzTnAwgDt9Mpy-2">
          <mxGeometry relative="1" as="geometry">
            <mxPoint x="390" y="330" as="targetPoint" />
          </mxGeometry>
        </mxCell>
        <mxCell id="Xm-82mKOzTnAwgDt9Mpy-14" style="edgeStyle=orthogonalEdgeStyle;rounded=0;orthogonalLoop=1;jettySize=auto;html=1;" edge="1" parent="1" source="Xm-82mKOzTnAwgDt9Mpy-3" target="Xm-82mKOzTnAwgDt9Mpy-4">
          <mxGeometry relative="1" as="geometry" />
        </mxCell>
        <mxCell id="Xm-82mKOzTnAwgDt9Mpy-3" value="批阅" style="ellipse;whiteSpace=wrap;html=1;aspect=fixed;" vertex="1" parent="1">
          <mxGeometry x="300" y="460" width="80" height="80" as="geometry" />
        </mxCell>
        <mxCell id="Xm-82mKOzTnAwgDt9Mpy-17" style="edgeStyle=orthogonalEdgeStyle;rounded=0;orthogonalLoop=1;jettySize=auto;html=1;" edge="1" parent="1" source="Xm-82mKOzTnAwgDt9Mpy-4" target="Xm-82mKOzTnAwgDt9Mpy-5">
          <mxGeometry relative="1" as="geometry" />
        </mxCell>
        <mxCell id="Xm-82mKOzTnAwgDt9Mpy-19" style="edgeStyle=orthogonalEdgeStyle;rounded=0;orthogonalLoop=1;jettySize=auto;html=1;entryX=0.5;entryY=0;entryDx=0;entryDy=0;" edge="1" parent="1" source="Xm-82mKOzTnAwgDt9Mpy-4" target="Xm-82mKOzTnAwgDt9Mpy-16">
          <mxGeometry relative="1" as="geometry" />
        </mxCell>
        <mxCell id="Xm-82mKOzTnAwgDt9Mpy-20" style="edgeStyle=orthogonalEdgeStyle;rounded=0;orthogonalLoop=1;jettySize=auto;html=1;" edge="1" parent="1" source="Xm-82mKOzTnAwgDt9Mpy-4">
          <mxGeometry relative="1" as="geometry">
            <mxPoint x="340" y="760" as="targetPoint" />
          </mxGeometry>
        </mxCell>
        <mxCell id="Xm-82mKOzTnAwgDt9Mpy-23" style="edgeStyle=orthogonalEdgeStyle;rounded=0;orthogonalLoop=1;jettySize=auto;html=1;entryX=0;entryY=0.625;entryDx=0;entryDy=0;entryPerimeter=0;curved=1;" edge="1" parent="1" source="Xm-82mKOzTnAwgDt9Mpy-4" target="Xm-82mKOzTnAwgDt9Mpy-2">
          <mxGeometry relative="1" as="geometry" />
        </mxCell>
        <mxCell id="Xm-82mKOzTnAwgDt9Mpy-4" value="承办" style="ellipse;whiteSpace=wrap;html=1;aspect=fixed;" vertex="1" parent="1">
          <mxGeometry x="300" y="600" width="80" height="80" as="geometry" />
        </mxCell>
        <mxCell id="Xm-82mKOzTnAwgDt9Mpy-5" value="归档" style="ellipse;whiteSpace=wrap;html=1;aspect=fixed;" vertex="1" parent="1">
          <mxGeometry x="180" y="740" width="80" height="80" as="geometry" />
        </mxCell>
        <mxCell id="Xm-82mKOzTnAwgDt9Mpy-6" style="edgeStyle=orthogonalEdgeStyle;rounded=0;orthogonalLoop=1;jettySize=auto;html=1;exitX=0.5;exitY=1;exitDx=0;exitDy=0;" edge="1" parent="1" source="Xm-82mKOzTnAwgDt9Mpy-2" target="Xm-82mKOzTnAwgDt9Mpy-2">
          <mxGeometry relative="1" as="geometry" />
        </mxCell>
        <mxCell id="Xm-82mKOzTnAwgDt9Mpy-16" value="知会" style="ellipse;whiteSpace=wrap;html=1;aspect=fixed;" vertex="1" parent="1">
          <mxGeometry x="450" y="730" width="80" height="80" as="geometry" />
        </mxCell>
        <mxCell id="Xm-82mKOzTnAwgDt9Mpy-21" value="承办" style="ellipse;whiteSpace=wrap;html=1;aspect=fixed;" vertex="1" parent="1">
          <mxGeometry x="300" y="760" width="80" height="80" as="geometry" />
        </mxCell>
      </root>
    </mxGraphModel>
  </diagram>
</mxfile>
